<svg viewBox="0 0 96 96" xmlns="http://www.w3.org/2000/svg" xmlns:xlink="http://www.w3.org/1999/xlink" id="Icons_LightBulbAndPencil" overflow="hidden"><path d="M45 64 25 64C23.3431 64 22 65.3431 22 67 22 68.6569 23.3431 70 25 70L45 70C46.6569 70 48 68.6569 48 67 48 65.3431 46.6569 64 45 64Z"/><path d="M45 74 25 74C23.3431 74 22 75.3431 22 77 22 78.6569 23.3431 80 25 80L45 80C46.6569 80 48 78.6569 48 77 48 75.3431 46.6569 74 45 74Z"/><path d="M35 90C38.4014 90.0052 41.2335 87.391 41.5 84L28.5 84C28.7758 87.3865 31.6023 89.9956 35 90Z"/><path d="M69.57 34.08 51.68 43.08 51.68 43.08C51.2265 43.7523 50.7287 44.3937 50.19 45 47.8989 47.764 45.9358 50.7841 44.34 54L25.66 54C24.0679 50.782 22.1045 47.7614 19.81 45 18.367 43.3809 17.2226 41.5188 16.43 39.5 15.5713 37.2613 15.0881 34.8961 15 32.5L15 31.75C15.2007 20.8293 24.0777 12.0633 35 12L35 12C45.9224 12.0633 54.7993 20.8293 55 31.75L55 31.75C55 31.81 55 31.87 55 31.93 55 33.5869 56.3431 34.93 58 34.93 59.6569 34.93 61 33.5869 61 31.93L61 31.93 61 31.93C60.748 17.6878 49.2428 6.2136 35 6L35 6C20.7988 6.10055 9.26535 17.501 9 31.7L9 32.6C9.09929 35.6797 9.711 38.7213 10.81 41.6 11.8641 44.3161 13.3948 46.8221 15.33 49 17.71 51.6 20.33 56.65 21.42 58.89 21.7577 59.5697 22.4511 59.9996 23.21 60L46.79 60C47.5489 59.9996 48.2423 59.5697 48.58 58.89 49.68 56.65 52.29 51.6 54.67 49 55.5576 47.9972 56.3572 46.9199 57.06 45.78L69.64 52.12 92 52.12 92 34ZM70.63 48.16 62.63 44.16 62.63 42 70.63 38C73.4187 38.0917 75.6315 40.3798 75.63 43.17 75.6245 45.9275 73.3875 48.16 70.63 48.16Z"/></svg>