<svg viewBox="0 0 96 96" xmlns="http://www.w3.org/2000/svg" xmlns:xlink="http://www.w3.org/1999/xlink" id="Icons_DrawingCompass" overflow="hidden"><path d="M72.5 44 61.61 44 57 28.84 57 13 51 13 51 6.5C51 4.84315 49.6569 3.5 48 3.5 46.3431 3.5 45 4.84315 45 6.5L45 13 39 13 39 28.84 34.39 44 23.75 44C22.0931 44 20.75 45.3431 20.75 47 20.75 48.6569 22.0931 50 23.75 50L32.56 50 26 71.55 26 84C26.0036 85.2683 26.8043 86.3973 28 86.82L28 89 29 92 30 89 30 86.82C31.1957 86.3973 31.9964 85.2683 32 84L32 72.45 38.83 50 45 50 45 52C45 53.6569 46.3431 55 48 55 49.6569 55 51 53.6569 51 52L51 50 57.17 50 64 72.45 64 84C64.0036 85.2683 64.8043 86.3973 66 86.82L66 89 67 92 68 89 68 86.82C69.1957 86.3973 69.9964 85.2683 70 84L70 71.55 63.44 50 72.5 50C74.1569 50 75.5 48.6569 75.5 47 75.5 45.3431 74.1569 44 72.5 44ZM51 44 51 42C51 40.3431 49.6569 39 48 39 46.3431 39 45 40.3431 45 42L45 44 40.66 44 44.92 30 51.08 30 55.34 44Z"/></svg>